<svg xmlns="http://www.w3.org/2000/svg" width="256" height="256" viewBox="0 0 24 24" fill="none" stroke="#0066b8" stroke-width="1.5" stroke-linecap="round" stroke-linejoin="round">
  <defs>
    <filter id="soft-blur" x="-50%" y="-50%" width="200%" height="200%">
      <feGaussianBlur stdDeviation="1.6"/>
    </filter>
  </defs>
  <g filter="url(#soft-blur)" opacity="0.88">
    <path d="M3 7V5a2 2 0 0 1 2-2h2"/>
    <path d="M17 3h2a2 2 0 0 1 2 2v2"/>
    <path d="M21 17v2a2 2 0 0 1-2 2h-2"/>
    <path d="M7 21H5a2 2 0 0 1-2-2v-2"/>
    <path d="M8 14s1.5 2 4 2 4-2 4-2"/>
    <path d="M9 9h.01"/>
    <path d="M15 9h.01"/>
  </g>
</svg>
